Motion_pl08
version=1
nRows=6
nColumns=43
inDegrees=yes
endheader
time	pelvis_tilt	pelvis_list	pelvis_rotation	pelvis_tx	pelvis_ty	pelvis_tz	hip_flexion_r	hip_adduction_r	hip_rotation_r	knee_angle_r	ankle_angle_r	subtalar_angle_r	mtp_angle_r	hip_flexion_l	hip_adduction_l	hip_rotation_l	knee_angle_l	ankle_angle_l	subtalar_angle_l	mtp_angle_l	lumbar_extension	lumbar_bending	lumbar_rotation	neck_flexion	neck_lateral_bending	neck_rotation	arm_flex_r	arm_add_r	arm_rot_r	elbow_flex_r	pro_sup_r	wrist_flex_r	wrist_dev_r	hand_finger_flex_r	arm_flex_l	arm_add_l	arm_rot_l	elbow_flex_l	pro_sup_l	wrist_flex_l	wrist_dev_l	hand_finger_flex_l
      1.07750000	     -2.03657215	      0.52157323	     93.79897914	      0.02859227	      0.41680791	      0.39310505	    102.29545303	     -8.22273888	      3.67296175	   -143.63722413	     24.38196388	      8.83268360	     20.42875782	    101.92719364	    -15.16544101	      8.60357781	   -141.23596769	     17.74487762	     34.55287224	     34.17310153	    -56.99513780	     -3.68292657	     -0.92279787	     37.05900367	      3.25589646	     -7.41742236	    109.77033930	    -27.35421327	     25.25717797	     60.82743501	     92.95681008	     -9.18381703	    -14.50230972	     -9.76622935	    114.93742093	    -23.91377337	     33.26585143	     42.60534023	    105.78353640	    -35.99552306	    -10.87862163	      6.44234262
      1.08000000	     -2.02417008	      0.32450954	     93.81288223	      0.02870914	      0.41764181	      0.39285858	    102.37312470	     -8.28731466	      3.69385419	   -143.52833582	     24.29538678	      9.06877178	     20.54567646	    101.98417264	    -15.21020702	      8.62079215	   -141.11500074	     17.67386117	     34.72364136	     34.27775511	    -56.78190450	     -3.64946527	     -0.97179940	     37.33122362	      3.14499532	     -7.41426940	    110.12113600	    -27.12398966	     25.38296153	     60.39103058	     92.79882069	     -9.08679121	    -14.42321392	     -9.97607986	    115.15158817	    -23.92816556	     33.32799467	     42.38288090	    105.58790884	    -35.95661422	    -10.86515923	      6.34350912
      1.08250000	     -2.02002726	      0.22549606	     93.82072226	      0.02888619	      0.41865878	      0.39245836	    102.28943398	     -8.35432813	      3.66360628	   -143.40570051	     24.26054248	      9.12036383	     20.56492123	    101.89802463	    -15.26524221	      8.60577896	   -140.97046661	     17.65071899	     34.75435488	     34.29485918	    -56.65463230	     -3.66157178	     -0.96496320	     37.33322758	      3.12405342	     -7.40971852	    110.25127654	    -27.12088431	     25.36309775	     60.31618551	     92.76750168	     -9.08100242	    -14.41230649	    -10.01794234	    115.25595900	    -23.93713423	     33.32490715	     42.38548787	    105.55727775	    -35.95567526	    -10.87408594	      6.32516565
      1.08500000	     -2.00152690	      0.13359901	     93.84437508	      0.02893346	      0.41950453	      0.39216285	    102.28650461	     -8.45375764	      3.80750039	   -143.32710299	     24.08491260	      9.95892367	     21.13607427	    101.86805800	    -15.31474070	      8.72089237	   -140.84125744	     17.43954753	     35.45498829	     34.79961063	    -56.52929913	     -3.54311979	     -1.05639577	     37.42455622	      2.74082490	     -7.28964007	    110.82291925	    -26.88112272	     25.92636614	     59.71658752	     92.16956924	     -8.68320696	    -14.53993425	    -10.88599235	    115.49121132	    -24.30162268	     33.81268877	     42.28568467	    104.96125880	    -35.85441565	    -11.15401403	      5.95588247
      1.08750000	     -1.98922128	      0.00765148	     93.83663464	      0.02910722	      0.42051878	      0.39181761	    102.21607908	     -8.49381363	      3.74072807	   -143.18709423	     24.08065023	      9.96781690	     21.17720944	    101.80089744	    -15.37291065	      8.68702645	   -140.69814266	     17.44030504	     35.45178608	     34.83624208	    -56.37847292	     -3.57924823	     -1.04283821	     37.52425147	      2.80315611	     -7.30591086	    110.96702705	    -26.84414508	     25.87755169	     59.55113079	     92.13138205	     -8.70214199	    -14.49465377	    -10.96392836	    115.61256689	    -24.23233268	     33.77453703	     42.19268557	    104.87664432	    -35.85126354	    -11.10396770	      5.92527924
      1.09000000	     -1.98591357	     -0.05685835	     93.84611784	      0.02926334	      0.42134797	      0.39122692	    102.14988017	     -8.52831325	      3.76127448	   -143.18964420	     24.06874925	      9.96798470	     21.17959462	    101.73137195	    -15.41129198	      8.72069184	   -140.68623124	     17.43219068	     35.44592003	     34.83871321	    -56.25148737	     -3.58628853	     -1.04597932	     37.53180803	      2.80603041	     -7.30778994	    111.02973556	    -26.85767469	     25.85315876	     59.53177756	     92.12703690	     -8.70760809	    -14.48882821	    -10.97152479	    115.66641380	    -24.24471936	     33.75610521	     42.18356135	    104.86848795	    -35.85333115	    -11.09931559	      5.92180376
